<svg width="267" height="128" viewBox="0 0 267 128" fill="none" xmlns="http://www.w3.org/2000/svg">
<path d="M67.9228 49.6414H76.2699L92.4247 94.7732H85.2836L80.3642 81.1892H67.7641L70.1762 74.5242H77.9521L72.1122 58.4011L58.9091 94.7732H51.768L67.9228 49.6414ZM111.8 49.6414H120.147L136.302 94.7732H129.161L124.242 81.1892H111.642L114.054 74.5242H121.83L115.99 58.4011L102.787 94.7732H95.6455L111.8 49.6414ZM142.697 49.6414H148.822L163.39 67.4465L177.958 49.6414H184.084V94.7732H177.387V61.0354L166.183 74.6194H160.629L149.394 61.0354V94.7732H142.697V49.6414ZM193.62 49.6414H200.317V94.7732H193.62V49.6414ZM209.886 49.6414H233.753C235.805 49.6414 237.667 50.1492 239.339 51.1648C241.031 52.1593 242.375 53.4923 243.369 55.1638C244.385 56.8354 244.893 58.6973 244.893 60.7498V65.2566C244.893 67.309 244.396 69.1604 243.401 70.8108C242.428 72.4612 241.095 73.773 239.402 74.7463C237.709 75.7196 235.816 76.2063 233.721 76.2063L247.178 94.7732H239.021L225.564 76.2063H220.391V69.5413H233.753C235.001 69.5413 236.059 69.1181 236.927 68.2717C237.794 67.4042 238.228 66.3674 238.228 65.1614V60.7498C238.228 59.5225 237.794 58.4752 236.927 57.6077C236.059 56.7402 235.001 56.3064 233.753 56.3064H216.582V94.7732H209.886V49.6414Z" fill="#EF4444"/>
<path d="M140.179 37.268L83.4742 0.773193L1.49844 80.4535H5.75617L83.4742 11.1134L129.23 37.268H140.179Z" fill="black" stroke="black" stroke-width="1.21649"/>
<path d="M51.2602 125.773V108.586H58.1352V111.906H54.7563V115.256H57.9984V118.488H54.7563V122.424H58.3598V125.773H51.2602ZM69.9023 125.773V108.586H73.4375L75.0195 116.818V108.586H78.3398V125.773H74.9805L73.2617 117.179V125.773H69.9023ZM91.7379 125.773V111.886H89.6969V108.586H97.2164V111.886H95.1754V125.773H91.7379ZM108.573 125.773V108.586H115.448V111.906H112.07V115.256H115.312V118.488H112.07V122.424H115.673V125.773H108.573ZM127.216 125.773V108.586H132.489C133.368 108.586 134.032 108.788 134.481 109.191C134.93 109.588 135.23 110.148 135.38 110.871C135.536 111.587 135.614 112.43 135.614 113.4C135.614 114.338 135.494 115.086 135.253 115.646C135.018 116.206 134.572 116.594 133.915 116.808C134.455 116.919 134.833 117.189 135.048 117.619C135.269 118.042 135.38 118.592 135.38 119.269V125.773H131.991V119.045C131.991 118.543 131.887 118.234 131.679 118.117C131.477 117.993 131.148 117.931 130.692 117.931V125.773H127.216ZM130.712 114.953H131.542C132.017 114.953 132.255 114.435 132.255 113.4C132.255 112.73 132.203 112.29 132.098 112.082C131.994 111.873 131.799 111.769 131.513 111.769H130.712V114.953ZM147.147 125.773V108.586H151.688C152.638 108.586 153.39 108.797 153.944 109.22C154.504 109.644 154.904 110.246 155.145 111.027C155.386 111.808 155.506 112.739 155.506 113.82C155.506 114.862 155.405 115.77 155.204 116.545C155.002 117.313 154.64 117.909 154.12 118.332C153.605 118.755 152.873 118.967 151.922 118.967H150.526V125.773H147.147ZM150.526 115.881H150.721C151.359 115.881 151.75 115.702 151.893 115.344C152.036 114.985 152.108 114.458 152.108 113.761C152.108 113.11 152.036 112.609 151.893 112.258C151.756 111.899 151.427 111.72 150.907 111.72H150.526V115.881ZM167 125.773V108.586H172.273C173.152 108.586 173.816 108.788 174.266 109.191C174.715 109.588 175.014 110.148 175.164 110.871C175.32 111.587 175.398 112.43 175.398 113.4C175.398 114.338 175.278 115.086 175.037 115.646C174.803 116.206 174.357 116.594 173.699 116.808C174.24 116.919 174.617 117.189 174.832 117.619C175.053 118.042 175.164 118.592 175.164 119.269V125.773H171.775V119.045C171.775 118.543 171.671 118.234 171.463 118.117C171.261 117.993 170.932 117.931 170.477 117.931V125.773H167ZM170.496 114.953H171.326C171.801 114.953 172.039 114.435 172.039 113.4C172.039 112.73 171.987 112.29 171.883 112.082C171.779 111.873 171.583 111.769 171.297 111.769H170.496V114.953ZM186.775 125.773V108.586H190.095V125.773H186.775ZM205.945 125.929C204.376 125.929 203.243 125.539 202.546 124.758C201.856 123.976 201.511 122.733 201.511 121.027V119.347H204.909V121.496C204.909 121.893 204.968 122.205 205.085 122.433C205.209 122.655 205.42 122.765 205.72 122.765C206.032 122.765 206.247 122.674 206.364 122.492C206.488 122.31 206.55 122.01 206.55 121.594C206.55 121.066 206.498 120.627 206.394 120.275C206.29 119.917 206.107 119.579 205.847 119.26C205.593 118.934 205.238 118.556 204.782 118.127L203.239 116.662C202.087 115.575 201.511 114.331 201.511 112.931C201.511 111.467 201.849 110.35 202.527 109.582C203.21 108.814 204.196 108.429 205.486 108.429C207.061 108.429 208.178 108.849 208.835 109.689C209.499 110.529 209.831 111.805 209.831 113.517H206.335V112.336C206.335 112.101 206.267 111.919 206.13 111.789C206 111.659 205.821 111.594 205.593 111.594C205.32 111.594 205.118 111.672 204.988 111.828C204.864 111.978 204.802 112.173 204.802 112.414C204.802 112.655 204.867 112.915 204.997 113.195C205.127 113.475 205.385 113.797 205.769 114.162L207.751 116.066C208.148 116.444 208.513 116.844 208.845 117.267C209.177 117.684 209.444 118.172 209.646 118.732C209.848 119.286 209.948 119.963 209.948 120.763C209.948 122.378 209.649 123.644 209.05 124.562C208.458 125.474 207.422 125.929 205.945 125.929ZM221.501 125.773V108.586H228.376V111.906H224.997V115.256H228.239V118.488H224.997V122.424H228.6V125.773H221.501ZM244.225 125.929C242.656 125.929 241.523 125.539 240.827 124.758C240.136 123.976 239.791 122.733 239.791 121.027V119.347H243.19V121.496C243.19 121.893 243.248 122.205 243.366 122.433C243.489 122.655 243.701 122.765 244 122.765C244.313 122.765 244.528 122.674 244.645 122.492C244.769 122.31 244.83 122.01 244.83 121.594C244.83 121.066 244.778 120.627 244.674 120.275C244.57 119.917 244.388 119.579 244.127 119.26C243.873 118.934 243.519 118.556 243.063 118.127L241.52 116.662C240.368 115.575 239.791 114.331 239.791 112.931C239.791 111.467 240.13 110.35 240.807 109.582C241.491 108.814 242.477 108.429 243.766 108.429C245.342 108.429 246.458 108.849 247.116 109.689C247.78 110.529 248.112 111.805 248.112 113.517H244.616V112.336C244.616 112.101 244.547 111.919 244.411 111.789C244.28 111.659 244.101 111.594 243.873 111.594C243.6 111.594 243.398 111.672 243.268 111.828C243.144 111.978 243.082 112.173 243.082 112.414C243.082 112.655 243.148 112.915 243.278 113.195C243.408 113.475 243.665 113.797 244.049 114.162L246.032 116.066C246.429 116.444 246.793 116.844 247.125 117.267C247.457 117.684 247.724 118.172 247.926 118.732C248.128 119.286 248.229 119.963 248.229 120.763C248.229 122.378 247.929 123.644 247.33 124.562C246.738 125.474 245.703 125.929 244.225 125.929Z" fill="black"/>
<line x1="30.7098" y1="127.773" x2="30.7098" y2="73.5387" stroke="black" stroke-width="3.64948"/>
</svg>
